# xmcd
#
# Track frame offsets: 
#        150
#        11382
#        21772
#        33087
#        43355
#        56375
#        65312
#        76957
#        85125
#        92360
#        102822
#        111137
#        121810
#        130747
#        138147
#
# Disc length: 2022 seconds
#
# Revision: 0
# Processed by: cddbd v1.5.2PL0 Copyright (c) Steve Scherf et al.
# Submitted via: ExactAudioCopy v0.95b3
#
DISCID=aa07e40f
DTITLE=The Beatles  - The Complete Decca Audition (Masterdisc)  FLAC
DYEAR=1900
DGENRE=
TTITLE0=Like Dreamers Do
TTITLE1=Money
TTITLE2=To Know Her is To Love Her
TTITLE3=Memphis
TTITLE4=Till There Was You
TTITLE5=Sure To Fall
TTITLE6=Besame Mucho
TTITLE7=Love of The Loved
TTITLE8=Hello Little Girl
TTITLE9=Three Cool Cats
TTITLE10=September in The Rain
TTITLE11=Take Good Care of My Baby
TTITLE12=Crying, Waiting, Hoping
TTITLE13=The Shiek of Araby
TTITLE14=Searchin'
EXTD=
EXTT0=
EXTT1=
EXTT2=
EXTT3=
EXTT4=
EXTT5=
EXTT6=
EXTT7=
EXTT8=
EXTT9=
EXTT10=
EXTT11=
EXTT12=
EXTT13=
EXTT14=
PLAYORDER=
